<?xml version="1.0" encoding="UTF-8" standalone="no"?>
<svg
   xmlns:dc="http://purl.org/dc/elements/1.1/"
   xmlns:cc="http://creativecommons.org/ns#"
   xmlns:rdf="http://www.w3.org/1999/02/22-rdf-syntax-ns#"
   xmlns:svg="http://www.w3.org/2000/svg"
   xmlns="http://www.w3.org/2000/svg"
   viewBox="0 0 187.64999 152.075"
   height="152.075"
   width="187.64999"
   xml:space="preserve"
   version="1.1"
   id="svg3355"><metadata
     id="metadata3361"><rdf:RDF><cc:Work
         rdf:about=""><dc:format>image/svg+xml</dc:format><dc:type
           rdf:resource="http://purl.org/dc/dcmitype/StillImage" /><dc:title></dc:title></cc:Work></rdf:RDF></metadata><defs
     id="defs3359" /><g
     transform="matrix(1.25,0,0,-1.25,0,152.075)"
     id="g3363"><g
       transform="scale(0.1,0.1)"
       id="g3365"><path
         id="path3367"
         style="fill:#10427a;fill-opacity:1;fill-rule:nonzero;stroke:none"
         d="m 1075.23,842.27 c 0.06,1.457 0.12,2.894 0.16,4.242 -0.04,-1.36 -0.1,-2.77 -0.16,-4.242 z m -0.47,-8.262 c 0.12,1.738 0.24,3.476 0.33,5.097 -0.09,-1.628 -0.21,-3.351 -0.33,-5.097 z m -0.76,-9.149 c 0.08,0.77 0.15,1.524 0.21,2.274 -0.06,-0.754 -0.13,-1.5 -0.21,-2.274 z m -0.7,-6.711 c 0.01,0.04 0.01,0.079 0.02,0.118 -0.01,-0.039 -0.01,-0.078 -0.02,-0.118 z m 2.15,30.614 c 0.04,2.011 0.07,3.945 0.07,5.66 0,-1.719 -0.02,-3.645 -0.07,-5.66 z M 425.051,827.211 c 0.07,-0.785 0.14,-1.578 0.219,-2.383 -0.079,0.809 -0.149,1.59 -0.219,2.383 z m -0.871,11.914 c 0.093,-1.699 0.215,-3.516 0.34,-5.344 -0.125,1.836 -0.247,3.641 -0.34,5.344 z m -0.301,7.383 c 0.039,-1.356 0.098,-2.797 0.16,-4.27 -0.062,1.481 -0.121,2.907 -0.16,4.27 z m 2.074,-28.203 c 0.004,-0.078 0.02,-0.164 0.027,-0.242 -0.007,0.078 -0.023,0.164 -0.027,0.242 z m -2.14,30.488 c -0.043,2.012 -0.067,3.922 -0.067,5.629 0,-1.703 0.027,-3.629 0.067,-5.629 z m 736.887,5.785 -22.66,3.277 c -16.63,2.411 -37.2,5.379 -62.52,8.422 l 0,258.173 c 2.05,4.54 28.02,62.42 28.02,62.42 l -16.48,2.76 c -1.62,0.27 -162.767,26.94 -337.408,26.94 -174.675,0 -335.859,-26.67 -337.468,-26.94 l -16.496,-2.76 c 0,0 26.015,-57.88 28.058,-62.43 l 0,-258.163 c -25.328,-3.047 -45.891,-6.011 -62.519,-8.422 l -22.649,-3.191 4.953,-13.105 c 4.617,-12.192 20.254,-44.481 25.235,-54.649 -3.731,-18.387 -6.575,-41.394 -7.344,-63.234 l -0.488,-13.235 13.125,1.789 c 18.937,2.473 44.867,5.434 75.445,8.411 -0.012,0.027 -0.024,0.054 -0.031,0.078 8.984,-24.465 20.953,-50.731 37.152,-77.949 53.84,-90.282 134.277,-160.141 239.113,-207.61 -0.031,0.008 18.563,-8.457 18.563,-8.457 l 5.351,-2.422 23.938,10.887 c 104.785,47.453 185.242,117.309 239.1,207.59 16.18,27.191 28.13,53.437 37.11,77.89 0,0 -0.01,-0.007 -0.01,-0.011 30.57,-2.977 56.49,-5.934 75.45,-8.407 l 13.09,-1.789 -0.5,13.235 c -0.78,21.84 -3.6,44.847 -7.29,63.234 4.91,10.168 20.58,42.457 25.25,54.649 l 4.91,13.019" /><path
         id="path3369"
         style="fill:#fddc04;fill-opacity:1;fill-rule:nonzero;stroke:none"
         d="m 1145.37,845.559 c -17.92,2.558 -40.74,5.976 -69.85,9.504 0,-0.36 0,-0.641 0,-0.641 0,-21.43 -2.83,-66.676 -21.88,-122.949 30.42,-3.004 55.6,-5.914 73.06,-8.188 -0.89,23.262 -3.85,47.723 -7.73,65.356 0,0 21.08,43.027 26.4,56.918 z m -721.624,9.504 c -29.098,-3.532 -51.898,-6.946 -69.805,-9.504 5.301,-13.891 26.317,-56.918 26.317,-56.918 -3.828,-17.633 -6.824,-42.094 -7.735,-65.356 17.489,2.274 42.696,5.184 73.125,8.188 -19.054,56.289 -21.902,101.523 -21.902,122.949 0,0 0,0.281 0,0.641" /><path
         id="path3371"
         style="fill:#fddc04;fill-opacity:1;fill-rule:nonzero;stroke:none"
         d="m 671.598,1141.43 c 1.609,0.65 2.968,1.27 4.09,1.84 1.132,0.57 2.003,1.11 2.656,1.59 0.636,0.47 1.054,0.9 1.222,1.24 0.164,0.32 0.293,1.04 0.379,2.17 0.078,1.13 0.137,2.68 0.157,4.61 0.031,1.94 0.05,4.28 0.05,7.01 0,0.92 0,1.88 0,2.87 0,1 0,2.04 0,3.12 0,1.08 0,2.1 0,3.11 0,0.99 0,1.94 0,2.87 0,2.7 -0.019,5.02 -0.05,6.93 -0.02,1.92 -0.079,3.44 -0.157,4.56 -0.086,1.13 -0.215,1.87 -0.379,2.2 -0.187,0.36 -0.625,0.74 -1.269,1.14 -0.645,0.39 -1.535,0.79 -2.649,1.21 -1.121,0.43 -2.468,0.86 -4.05,1.31 0,0.48 0,0.72 0,1.19 1.394,0.06 2.754,0.14 4.101,0.23 1.356,0.09 2.676,0.2 3.973,0.32 1.308,0.12 2.598,0.25 3.848,0.41 1.261,0.15 2.5,0.32 3.722,0.51 1.219,0.18 3.457,0.72 3.574,0.61 0.106,-0.09 -0.039,-1.49 -0.058,-2.43 -0.031,-0.94 -0.059,-2.01 -0.078,-3.22 -0.02,-1.2 -0.039,-2.53 -0.059,-4 -0.019,-1.46 -0.039,-3.06 -0.058,-4.79 -0.012,-1.74 -0.02,-3.6 -0.02,-5.6 -0.012,-2 -0.02,-4.13 -0.02,-6.4 0,-1.09 0,-2.13 0,-3.13 0,-0.99 0,-1.96 0,-2.88 0,-2.75 0.008,-5.1 0.04,-7.05 0.027,-1.94 0.085,-3.48 0.175,-4.62 0.078,-1.14 0.203,-1.87 0.379,-2.19 0.188,-0.34 0.606,-0.74 1.262,-1.19 0.652,-0.46 1.523,-0.97 2.637,-1.53 1.101,-0.57 2.429,-1.2 3.984,-1.9 0,-0.6 0,-0.91 0,-1.52 -1.457,0.11 -2.832,0.21 -4.141,0.29 -1.308,0.08 -2.539,0.14 -3.683,0.18 -1.16,0.05 -2.235,0.08 -3.231,0.1 -0.996,0.02 -1.914,0.03 -2.754,0.03 -0.898,-0.01 -1.847,-0.03 -2.871,-0.06 -1.007,-0.03 -2.082,-0.09 -3.215,-0.14 -1.132,-0.06 -2.324,-0.14 -3.574,-0.22 -1.258,-0.08 -2.558,-0.17 -3.933,-0.28 0,0.6 0,0.9 0,1.5" /><path
         id="path3373"
         style="fill:#fddc04;fill-opacity:1;fill-rule:nonzero;stroke:none"
         d="m 731.012,1178.9 c 0,1.86 -0.324,3.56 -0.891,5 -0.574,1.44 -1.394,2.61 -2.391,3.42 -1.007,0.81 -2.207,1.25 -3.527,1.25 -1.172,-0.02 -2.234,-0.36 -3.144,-0.94 -0.907,-0.59 -1.649,-1.43 -2.176,-2.47 -0.528,-1.01 -0.813,-2.22 -0.813,-3.53 0,-1.13 0.207,-2.17 0.598,-3.2 0.41,-1.02 1.004,-1.99 1.805,-2.96 0.793,-0.97 1.769,-1.92 2.968,-2.88 1.184,-0.97 3.457,-3.05 4.133,-2.98 0.449,0.05 1.492,1.69 1.992,2.62 0.516,0.93 0.879,1.92 1.102,3.02 0.234,1.1 0.344,2.3 0.344,3.65 z m -14.328,-30.51 c 0,-1.76 0.207,-3.35 0.605,-4.76 0.383,-1.42 0.957,-2.64 1.68,-3.63 0.703,-1 1.574,-1.79 2.551,-2.32 0.996,-0.52 2.097,-0.81 3.281,-0.8 1.367,0 2.644,0.44 3.73,1.22 1.102,0.78 2.012,1.91 2.645,3.28 0.637,1.38 1.008,2.99 1.008,4.77 0,1.33 -0.215,2.55 -0.657,3.69 -0.429,1.15 -1.074,2.23 -1.953,3.3 -0.867,1.06 -1.972,2.11 -3.281,3.18 -1.316,1.07 -3.816,3.42 -4.637,3.36 -0.597,-0.04 -2.011,-2.01 -2.754,-3.17 -0.734,-1.17 -1.3,-2.44 -1.66,-3.79 -0.371,-1.35 -0.558,-2.79 -0.558,-4.33 z m -7.528,28.2 c 0,1.48 0.196,2.95 0.586,4.33 0.391,1.4 0.957,2.72 1.688,3.97 0.734,1.23 1.633,2.37 2.675,3.39 1.055,1.02 2.239,1.92 3.555,2.67 1.32,0.74 2.766,1.34 4.309,1.74 1.551,0.42 3.211,0.65 4.949,0.67 1.621,0.01 3.125,-0.19 4.504,-0.57 1.355,-0.38 2.605,-0.96 3.68,-1.69 1.086,-0.73 2.011,-1.61 2.785,-2.63 0.75,-1 1.328,-2.15 1.726,-3.37 0.391,-1.24 0.606,-2.56 0.606,-3.96 0,-1.4 -0.176,-2.71 -0.516,-3.96 -0.344,-1.26 -0.879,-2.46 -1.582,-3.61 -0.695,-1.16 -1.562,-2.27 -2.617,-3.38 -1.055,-1.1 -3.691,-3.19 -3.691,-3.31 0.007,-0.31 2.636,-1.91 3.738,-2.86 1.094,-0.95 2.051,-1.9 2.863,-2.88 0.82,-0.97 1.492,-1.98 2.031,-3.03 0.547,-1.05 0.938,-2.15 1.2,-3.33 0.273,-1.16 0.41,-2.41 0.41,-3.75 0,-1.63 -0.176,-3.13 -0.508,-4.54 -0.332,-1.4 -0.848,-2.72 -1.563,-3.97 -0.703,-1.26 -1.589,-2.45 -2.683,-3.62 -1.094,-1.16 -2.246,-2.19 -3.449,-3.07 -1.2,-0.87 -2.45,-1.59 -3.75,-2.17 -1.309,-0.58 -2.664,-1.02 -4.09,-1.3 -1.426,-0.29 -2.891,-0.43 -4.426,-0.43 -1.473,0 -2.871,0.17 -4.168,0.51 -1.301,0.33 -2.512,0.83 -3.594,1.45 -1.094,0.63 -2.082,1.38 -2.941,2.25 -0.86,0.87 -1.602,1.86 -2.215,2.93 -0.598,1.07 -1.066,2.24 -1.379,3.48 -0.312,1.23 -0.476,2.54 -0.476,3.89 0,1.33 0.144,2.58 0.437,3.76 0.273,1.18 0.715,2.29 1.301,3.36 0.586,1.05 1.308,2.05 2.187,3.03 0.887,0.96 1.922,1.89 3.106,2.79 1.179,0.91 4.011,2.66 4.011,2.66 0.012,0.26 -2.734,2.03 -3.835,3.14 -1.094,1.09 -1.993,2.23 -2.715,3.44 -0.723,1.2 -1.262,2.46 -1.614,3.79 -0.359,1.32 -0.535,2.71 -0.535,4.18" /><path
         id="path3375"
         style="fill:#fddc04;fill-opacity:1;fill-rule:nonzero;stroke:none"
         d="m 751.031,1136.34 c 1.766,0.34 3.418,0.78 4.949,1.3 1.536,0.54 2.95,1.16 4.258,1.86 1.301,0.71 2.473,1.49 3.528,2.35 1.054,0.86 1.972,1.79 2.781,2.79 0.801,0.99 1.465,2.05 2.004,3.16 0.547,1.13 0.945,2.3 1.219,3.52 0.285,1.23 0.41,2.49 0.41,3.81 0,1.38 -0.164,2.64 -0.508,3.78 -0.34,1.14 -0.867,2.17 -1.551,3.07 -0.695,0.9 -1.543,1.66 -2.558,2.27 -1.016,0.63 -2.2,1.11 -3.536,1.43 -1.339,0.32 -2.832,0.5 -4.484,0.5 -0.652,0 -1.465,-0.04 -2.422,-0.12 -0.945,-0.06 -3.183,-0.37 -3.281,-0.24 -0.242,0.28 0.547,3.44 0.82,5.11 0.266,1.66 0.52,3.28 0.762,4.87 0.246,1.59 0.48,3.14 0.715,4.64 0.215,1.51 0.437,2.97 0.633,4.41 0.207,1.43 0.402,2.81 0.585,4.18 0.168,1.35 0.305,3.81 0.5,3.96 0.204,0.16 1.903,-0.32 3.028,-0.42 1.113,-0.1 2.344,-0.16 3.652,-0.21 1.336,-0.04 2.754,-0.06 4.285,-0.07 1.289,-0.01 2.532,-0.01 3.762,0 1.219,0.01 2.422,0.03 3.594,0.07 1.172,0.03 2.312,0.07 3.418,0.13 1.121,0.05 3.164,0.32 3.269,0.2 0.168,-0.18 -0.156,-2.13 -0.183,-3.23 -0.039,-1.1 -0.039,-2.22 -0.039,-3.36 0,-0.37 0,-1.12 0.019,-2.26 0.02,-1.13 0.059,-2.64 0.137,-4.51 -0.266,0 -0.402,0 -0.656,0.01 -0.633,1.19 -1.27,1.86 -1.993,2.23 -0.742,0.38 -1.562,0.45 -2.546,0.47 -0.508,0 -1.172,0 -1.907,0.01 -1.386,0.02 -2.597,0.02 -3.73,0.03 -1.121,0.01 -2.176,0.02 -3.211,0.03 -1.035,0 -2.07,0.01 -3.203,0.02 -1.145,0 -2.344,0.01 -3.742,0.01 -0.235,-1.6 -0.411,-2.8 -0.575,-3.99 -0.187,-1.19 -0.351,-2.4 -0.597,-3.99 1.242,0.09 2.422,0.08 3.586,0.08 1.797,-0.01 3.484,-0.13 5.039,-0.36 1.543,-0.24 2.957,-0.59 4.265,-1.06 1.301,-0.47 2.453,-1.05 3.489,-1.75 1.035,-0.7 1.941,-1.51 2.714,-2.43 0.782,-0.93 1.426,-1.97 1.942,-3.13 0.508,-1.16 0.91,-2.43 1.164,-3.81 0.254,-1.4 0.391,-2.9 0.391,-4.52 0,-1.36 -0.118,-2.69 -0.313,-3.98 -0.226,-1.3 -0.547,-2.55 -0.969,-3.76 -0.429,-1.21 -0.957,-2.38 -1.59,-3.49 -0.636,-1.12 -1.359,-2.18 -2.187,-3.19 -0.84,-1.01 -1.777,-1.97 -2.793,-2.86 -1.027,-0.89 -2.16,-1.72 -3.371,-2.49 -1.219,-0.76 -2.527,-1.45 -3.934,-2.07 -1.398,-0.62 -2.902,-1.17 -4.484,-1.64 -1.582,-0.46 -3.262,-0.84 -5.008,-1.15 -1.769,-0.29 -3.605,-0.51 -5.547,-0.62 0,1.77 0,2.64 0,4.41" /><path
         id="path3377"
         style="fill:#fddc04;fill-opacity:1;fill-rule:nonzero;stroke:none"
         d="m 815.289,1161.92 c 0,2.46 -0.07,4.76 -0.176,6.88 -0.117,2.13 -0.285,4.08 -0.508,5.86 -0.234,1.78 -0.507,3.4 -0.839,4.84 -0.332,1.43 -0.703,2.7 -1.133,3.79 -0.43,1.08 -0.91,2 -1.418,2.73 -0.527,0.74 -1.082,1.3 -1.68,1.68 -0.613,0.38 -1.25,0.58 -1.914,0.59 -0.887,0.03 -1.66,-0.2 -2.344,-0.68 -0.683,-0.49 -1.25,-1.22 -1.757,-2.2 -0.489,-0.99 -0.887,-2.23 -1.2,-3.72 -0.324,-1.5 -0.547,-3.24 -0.695,-5.25 -0.156,-2 -0.223,-4.27 -0.223,-6.79 0,-2.49 0.059,-4.81 0.157,-6.94 0.105,-2.14 0.273,-4.1 0.476,-5.89 0.207,-1.79 0.481,-3.4 0.793,-4.83 0.313,-1.44 0.672,-2.69 1.102,-3.77 0.429,-1.08 0.898,-1.97 1.406,-2.7 0.527,-0.71 1.105,-1.25 1.719,-1.61 0.617,-0.37 1.289,-0.55 2.011,-0.55 0.918,-0.01 1.711,0.23 2.422,0.72 0.684,0.48 1.27,1.22 1.758,2.19 0.488,0.98 0.879,2.21 1.172,3.7 0.305,1.48 0.539,3.22 0.656,5.2 0.145,1.99 0.215,4.25 0.215,6.75 z m -24.641,2.95 c 0,1.53 0.071,3.04 0.227,4.5 0.137,1.46 0.359,2.9 0.645,4.29 0.281,1.4 0.644,2.76 1.074,4.08 0.418,1.31 0.918,2.6 1.492,3.84 0.664,1.43 1.387,2.74 2.187,3.9 0.813,1.17 1.692,2.19 2.61,3.08 0.918,0.88 1.883,1.61 2.91,2.19 1.016,0.59 2.07,1.02 3.152,1.31 1.086,0.28 2.2,0.41 3.321,0.39 1.3,-0.04 2.539,-0.22 3.742,-0.54 1.199,-0.32 2.324,-0.77 3.406,-1.36 1.074,-0.59 2.082,-1.31 3.02,-2.16 0.925,-0.84 1.796,-1.8 2.566,-2.88 0.793,-1.08 1.484,-2.28 2.102,-3.59 0.605,-1.3 1.132,-2.72 1.562,-4.24 0.399,-1.52 0.742,-3.14 0.965,-4.86 0.207,-1.71 0.324,-3.53 0.324,-5.44 0,-2.14 -0.117,-4.2 -0.344,-6.14 -0.234,-1.95 -0.574,-3.78 -1.023,-5.51 -0.441,-1.71 -0.977,-3.31 -1.602,-4.8 -0.636,-1.47 -1.359,-2.83 -2.148,-4.05 -0.793,-1.21 -1.66,-2.3 -2.609,-3.24 -0.938,-0.95 -1.942,-1.75 -3.008,-2.4 -1.055,-0.64 -2.176,-1.13 -3.34,-1.47 -1.16,-0.33 -2.371,-0.5 -3.613,-0.49 -1.309,0 -2.547,0.16 -3.739,0.46 -1.183,0.3 -2.324,0.74 -3.39,1.33 -1.074,0.59 -2.078,1.32 -3.016,2.16 -0.918,0.86 -1.777,1.85 -2.551,2.95 -0.781,1.11 -1.472,2.34 -2.09,3.69 -0.593,1.34 -1.121,2.8 -1.542,4.37 -0.418,1.57 -0.743,3.24 -0.958,5.01 -0.214,1.78 -0.332,3.66 -0.332,5.62" /><path
         id="path3379"
         style="fill:#fddc04;fill-opacity:1;fill-rule:nonzero;stroke:none"
         d="m 739.34,1010.48 c 0,66.79 -54.277,121.07 -120.965,121.07 -66.75,0 -121.016,-54.28 -121.016,-121.07 0,-47.078 27.211,-87.957 66.723,-107.917 34.102,1.898 72.719,3.363 116.051,4.144 35.379,21.152 59.207,59.742 59.207,103.773 z m 70.176,-250.546 c -19.047,0.296 -38.953,0.468 -59.864,0.468 -20.918,0 -40.836,-0.172 -59.886,-0.468 -36.453,-20.875 -61.118,-60.094 -61.118,-105.075 0,-66.558 54.266,-120.941 121.004,-120.941 66.7,0 120.977,54.383 120.977,120.941 0,44.981 -24.668,84.2 -61.113,105.075 z m 71.464,371.616 c -66.746,0 -121.015,-54.28 -121.015,-121.07 0,-44.031 23.824,-82.621 59.223,-103.777 43.328,-0.777 81.941,-2.246 116.042,-4.148 39.497,19.961 66.71,60.84 66.71,107.925 0,66.79 -54.268,121.07 -120.96,121.07" /><path
         id="path3381"
         style="fill:#10427a;fill-opacity:1;fill-rule:nonzero;stroke:none"
         d="m 792.406,760.145 c -13.836,0.152 -27.98,0.257 -42.754,0.257 -14.785,0 -28.937,-0.101 -42.793,-0.257 -41.515,-16.95 -70.879,-57.723 -70.879,-105.286 0,-62.629 50.989,-113.586 113.672,-113.586 62.629,0 113.594,50.957 113.594,113.586 0,47.563 -29.351,88.336 -70.84,105.286 z m -60.437,250.335 c 0,62.71 -50.957,113.72 -113.594,113.72 -62.676,0 -113.652,-51.01 -113.652,-113.72 0,-49.429 31.8,-91.464 75.984,-107.039 25.328,1.25 52.961,2.266 82.984,2.942 40.133,17.535 68.278,57.57 68.278,104.097 z M 880.98,1124.2 c -62.675,0 -113.671,-51.01 -113.671,-113.72 0,-46.527 28.164,-86.562 68.332,-104.101 30.019,-0.68 57.644,-1.688 82.972,-2.945 44.16,15.578 75.953,57.617 75.953,107.046 0,62.71 -50.957,113.72 -113.586,113.72" /><path
         id="path3383"
         style="fill:#ffffff;fill-opacity:1;fill-rule:nonzero;stroke:none"
         d="m 726.148,1010.48 c 0,59.49 -48.351,107.9 -107.773,107.9 -59.465,0 -107.852,-48.41 -107.852,-107.9 0,-53.304 38.981,-97.574 89.922,-106.144 13.793,0.586 28.239,1.09 43.305,1.527 47.195,11.45 82.398,53.95 82.398,104.617 z m 154.832,107.9 c -59.472,0 -107.839,-48.41 -107.839,-107.9 0,-50.671 35.214,-93.171 82.457,-104.625 15.054,-0.429 29.5,-0.941 43.289,-1.527 50.914,8.57 89.859,52.844 89.859,106.152 0,59.49 -48.34,107.9 -107.766,107.9 z M 772.258,760.32 c -7.445,0.043 -14.903,0.082 -22.606,0.082 -7.703,0 -15.172,-0.039 -22.617,-0.082 -48.633,-10.433 -85.222,-53.734 -85.222,-105.461 0,-59.421 48.378,-107.765 107.839,-107.765 59.426,0 107.774,48.344 107.774,107.765 0,51.727 -36.567,95.028 -85.168,105.461" /><path
         id="path3385"
         style="fill:#10427a;fill-opacity:1;fill-rule:nonzero;stroke:none"
         d="m 765.094,747.383 c -0.586,1.082 -1.914,1.808 -3.547,2.234 l -11.895,-1.515 c -4.89,-1.961 -14.695,-4.516 -14.695,-4.516 -1.035,-2.66 0.41,-4.395 1.25,-6.934 0.391,-1.199 0.871,-2.812 1.367,-4.492 l 8.602,-1.074 c 4.445,-0.563 4.445,-0.563 6.144,-0.664 l 1.375,-0.067 0.618,-0.046 c 2.582,-0.157 4.968,-0.262 6.949,-0.141 0.054,0.285 0.09,0.48 0.148,0.773 0.84,4.122 5.813,12.461 3.684,16.442" /><path
         id="path3387"
         style="fill:#10427a;fill-opacity:1;fill-rule:nonzero;stroke:none"
         d="m 767.848,615.578 c -0.871,0.289 -1.813,0.5 -2.711,0.754 l -0.903,-4.801 -1.05,-10.39 c 1.035,-0.508 1.945,-1.055 2.593,-1.692 0.078,-0.07 0.157,-0.144 0.223,-0.226 2.551,-2.782 2.07,-7.598 -1.504,-10.426 -2.723,-2.008 -5.48,-3.375 -8.308,-4.297 0.152,1.586 0.292,3.184 0.41,4.73 0.39,5.215 0.683,8.571 1.035,12.297 0.281,2.93 0.605,6.094 1.062,10.571 0.129,1.14 0.735,3.593 1.184,6.316 0.457,2.762 0.75,5.813 0.223,8.082 -0.192,0.817 -0.715,1.445 -1.254,2.055 l -5.641,0.176 -0.547,0.031 c -5.402,0.351 -9.176,0.269 -11.898,0.047 0.273,-1.496 0.582,-2.957 0.699,-4.59 0.019,-0.453 0.047,-0.93 0.078,-1.41 0.164,-3.426 1.055,-6.762 1.406,-10.172 0.254,-2.387 1.434,-5.692 0.321,-7.942 -0.02,-0.039 -0.039,-0.093 -0.067,-0.14 -1.484,-2.664 -2.246,-5.84 -2.011,-9.391 0.281,-4.265 0.828,-4.726 1.054,-8.746 0.047,-0.941 0.176,-1.879 0.274,-2.824 -4.262,0.644 -10.602,2.383 -12.95,7.41 -2.48,5.344 3.036,9.418 0.086,10.516 -1.972,0.722 -6.914,-4.2 -6.14,-11.043 0.593,-5.321 3.633,-8.848 10.086,-12.668 2.523,-1.492 6.199,-2.754 9.707,-3.582 0.047,-2.746 -0.063,-4.86 0.617,-7.567 0.547,-2.152 -0.059,-4.804 1.738,-6.562 1.356,-1.332 2.059,-1.215 4.012,-1.973 4.133,2.184 4.973,9.215 5.176,12.766 0.035,0.57 0.125,1.465 0.207,2.34 6,0.312 11.601,1.839 15.664,4.894 8.894,6.692 12.234,13.699 11.172,22.109 -1.164,9.168 -6.953,12.989 -14.043,15.348" /><path
         id="path3389"
         style="fill:#10427a;fill-opacity:1;fill-rule:nonzero;stroke:none"
         d="m 762.563,675.051 c -0.586,1.73 -1.778,2.562 -3.153,4.234 -2.051,2.477 -1.094,7.496 -0.715,10.727 0.215,1.832 0.352,3.722 0.43,5.644 0.047,1.168 0.012,2.364 0.02,3.547 l -3.602,1.375 c -2.375,0.938 -5.332,2.11 -6.699,2.336 -1.446,0.246 -4.418,0.551 -7.828,0.508 -0.2,-4.371 -0.082,-9.742 -2.192,-13.125 -1.144,-1.844 -1.992,-2.668 -2.277,-3.899 -0.125,-0.613 -0.106,-1.324 0.09,-2.312 0.566,-2.711 1.367,-5.449 2.109,-8.106 1.66,-5.937 2,-7.843 2.442,-13.917 0.007,-0.2 0.039,-0.485 0.066,-0.801 0.074,-0.715 0.184,-1.703 0.289,-2.762 2.816,0.238 5.707,0.449 8.812,0.598 l -0.039,0 7.336,0.269 2.371,0.078 c 0.188,1.614 0.336,3.168 0.43,4.594 0.039,0.652 0.754,3.375 1.328,5.969 0.52,2.308 0.957,4.508 0.782,5.043" /><path
         id="path3391"
         style="fill:#10427a;fill-opacity:1;fill-rule:nonzero;stroke:none"
         d="m 782.504,717.742 c -0.535,-1.316 -2.488,-2.015 -4.617,-1.558 -2.297,0.488 -3.887,2.129 -3.547,3.656 0.332,1.523 2.441,2.363 4.746,1.867 0.344,-0.074 0.695,-0.187 1.016,-0.309 1.398,-0.511 3.351,-1.726 4.562,-4.652 0,0 -0.957,0.43 -2.16,0.996 z m 23.633,-3.168 c -0.117,0.844 -0.262,1.973 -1.395,2.68 -1.133,0.703 -9.043,3.949 -10.449,4.375 -1.406,0.426 -4.797,1.976 -6.348,2.82 -1.543,0.852 -0.566,1.418 -7.199,2.828 -6.641,1.403 -11.992,-0.847 -15.105,-1.976 -0.899,-0.328 -1.914,-0.524 -3.02,-0.637 -2.703,-0.285 -5.937,-0.059 -9.258,0.137 -4.656,0.281 -0.996,-0.071 -16.933,1.91 -0.457,0.055 -0.918,0.102 -1.367,0.152 -15.235,1.442 -26.063,-4.914 -29.969,-8.199 -18.399,-15.496 -14.219,-32.32 -12.813,-36.422 1.407,-4.086 3.594,-9.519 8.438,-13.398 7.578,-6.086 16.386,-7.403 25.41,-7.317 2.332,0.028 4.676,0.141 7.012,0.293 0.902,0.059 1.632,0.2 2.468,0.293 -0.39,5.227 -0.691,6.926 -2.214,12.364 l -0.254,0.878 c -0.684,2.461 -1.407,5 -1.946,7.606 -0.058,0.273 0.032,0.465 -0.007,0.723 -1.504,-0.204 -3.008,-0.313 -4.493,-0.274 -0.187,0.004 -0.382,0.02 -0.566,0.043 -4.121,0.442 -11.348,4.465 -9.602,11.817 1.368,5.828 4.289,8.503 10.911,11.328 3.054,1.308 6.582,1.949 9.949,2.226 5.343,0.438 10.304,-0.082 12.375,-0.429 2.957,-0.493 8.261,-2.95 12.156,-4.321 0.578,-0.195 1.113,-0.371 1.613,-0.515 1.805,-0.52 10.449,-1.973 17.645,-1.407 7.187,0.567 22.012,3.661 23.566,5.219 1.551,1.559 1.551,6.356 1.395,7.203" /><path
         id="path3393"
         style="fill:#10427a;fill-opacity:1;fill-rule:nonzero;stroke:none"
         d="m 795.289,678.758 c -5.371,11.148 -17.539,14.644 -23.195,15.347 -0.731,0.098 -1.504,0.168 -2.324,0.235 -1.579,0.117 -3.329,0.105 -5.168,0.008 -0.098,-1.762 -0.204,-3.465 -0.379,-4.989 l -0.164,-1.218 c -0.129,-0.969 -0.371,-2.852 -0.371,-4.215 0,-0.535 0.058,-0.973 0.156,-1.266 0.195,-0.234 0.769,-0.875 0.769,-0.875 1.075,-1.156 2.395,-2.597 3.203,-4.957 0.235,-0.652 0.344,-1.328 0.344,-2.129 0,-0.773 -0.133,-1.738 -0.332,-2.871 1.004,-0.015 2.043,0.059 2.949,-0.203 1.375,-0.406 2.598,-1.129 3.555,-2.289 5.078,-6.246 2.207,-11.551 -1.164,-13.762 -1.68,-1.094 -6.004,-1.422 -11.355,-1.633 -3.438,-0.128 -7.317,-0.203 -11.192,-0.39 -4.68,-0.227 -9.199,-0.567 -13.644,-1.063 -1.532,-0.168 -3.036,-0.351 -4.539,-0.562 -14.661,-2.02 -20.176,-12.496 -21.68,-16.27 -4.61,-13.843 6.972,-21.984 18.777,-26.148 0.742,-0.258 1.496,-0.496 2.246,-0.731 0.93,-0.285 1.867,-0.566 2.785,-0.804 1.176,-0.313 2.399,-0.586 3.618,-0.86 -0.016,0.602 -0.215,1.7 -0.348,2.41 l -0.41,2.532 -0.594,3.929 c -0.363,2.079 -0.734,4.235 -0.84,6.559 l -0.07,1.293 -0.043,0.781 c -0.313,0.125 -0.649,0.25 -0.941,0.379 -0.715,0.328 -1.379,0.645 -1.985,0.973 -1.68,0.929 -2.871,1.886 -3.183,2.844 -0.497,2.445 1.71,3.875 4.941,4.707 6.738,1.718 17.941,0.789 18.742,0.753 2.383,-0.097 4.735,-0.187 7.031,-0.218 4.219,-0.063 8.262,0.062 11.993,0.715 3.64,0.625 6.726,1.503 10.097,3.019 3.828,1.711 10.125,5.055 14.942,15.664 2.859,6.356 3.144,14.156 -2.227,25.305" /><path
         id="path3395"
         style="fill:#10427a;fill-opacity:1;fill-rule:nonzero;stroke:none"
         d="m 899.984,978.895 0,92.855 10.676,0 0,-49.3 c 6.11,-5.02 9.981,-11.46 9.981,-18.65 0,-10.78 -8.399,-20.046 -20.657,-24.905 z m 0,-29.172 0,15.445 c 6.008,-1.891 9.883,-4.633 9.883,-7.723 0,-3.093 -3.875,-5.832 -9.883,-7.722 z m -47.468,7.722 c 0,3.02 3.683,5.711 9.453,7.598 l 0,-15.195 c -5.77,1.882 -9.453,4.574 -9.453,7.597 z m -11.211,46.355 c 0,7.19 3.875,13.63 9.988,18.65 l 0,49.3 10.676,0 0,-92.855 c -12.262,4.859 -20.664,14.125 -20.664,24.905 z m 36.894,67.95 0,-96.293 c -3.726,0.191 -7.301,0.723 -10.676,1.602 l 0,94.691 10.676,0 z m 5.555,-104.098 c 3.836,-0.121 7.422,-0.511 10.676,-1.121 l 0,-18.168 c -3.254,-0.617 -6.84,-1.004 -10.676,-1.125 l 0,20.414 z m -5.555,-20.398 c -3.847,0.144 -7.437,0.551 -10.676,1.187 l 0,18.008 c 3.239,0.633 6.829,1.043 10.676,1.192 l 0,-20.387 z m 16.231,124.496 0,-94.695 c -3.375,-0.879 -6.95,-1.407 -10.676,-1.598 l 0,96.293 10.676,0 z m 46.804,-58.01 c -9.043,16.1 -10.984,29.53 -10.984,36.29 l 0,21.72 3.594,0 0,-4.75 c 1.16,-0.9 2.519,-1.44 3.972,-1.44 4.27,0 7.735,4.53 7.735,10.12 0,5.58 -3.465,10.12 -7.735,10.12 -1.453,0 -2.812,-0.53 -3.972,-1.45 l 0,-4.73 -3.594,0 c 0,10.49 0,19.72 0,19.72 l -19.59,0 0,-19.72 -10.676,0 0,0.8 c 0,1.54 -1.246,2.78 -2.777,2.78 -1.531,0 -2.777,-1.24 -2.777,-2.78 l 0,-0.8 -10.676,0 0,0.8 c 0,1.54 -1.242,2.78 -2.777,2.78 -1.536,0 -2.778,-1.24 -2.778,-2.78 l 0,-0.8 -10.676,0 0,0.8 c 0,1.54 -1.246,2.78 -2.777,2.78 -1.531,0 -2.777,-1.24 -2.777,-2.78 l 0,-0.8 -10.676,0 0,19.72 -19.59,0 c 0,0 0,-9.23 0,-19.72 l -3.601,0 0,4.73 c -1.164,0.92 -2.512,1.45 -3.977,1.45 -4.266,0 -7.723,-4.54 -7.723,-10.12 0,-5.59 3.457,-10.12 7.723,-10.12 1.465,0 2.813,0.54 3.977,1.44 l 0,4.75 3.601,0 0,-21.72 c 0,-6.76 -1.953,-20.19 -10.996,-36.29 -11.484,-20.416 -2.82,-51.92 -1.934,-55.494 2.559,-10.449 9.805,-29.238 13.762,-35.215 l 96.875,0 c 3.945,5.977 11.219,24.766 13.778,35.215 0.871,3.574 9.531,35.078 -1.954,55.494" /><path
         id="path3397"
         style="fill:#10427a;fill-opacity:1;fill-rule:nonzero;stroke:none"
         d="m 409.086,888.129 -9.598,-1.418 0,-32.289 c 0,-18.137 1.934,-55.629 14.766,-103.02 l 2.5,-9.402 9.637,1.246 c 59.64,7.82 164.062,17.156 323.261,17.156 159.172,0 263.648,-9.336 323.268,-17.156 l 9.6,-1.246 2.55,9.402 c 12.79,47.391 14.7,84.883 14.7,103.02 l 0,32.289 -9.54,1.418 c -61.4,8.762 -170.253,19.207 -340.578,19.207 -170.351,0 -279.246,-10.445 -340.566,-19.207" /><path
         id="path3399"
         style="fill:#fddc04;fill-opacity:1;fill-rule:nonzero;stroke:none"
         d="M 981.676,661.254 C 931.664,577.43 856.625,512.43 758.727,468.09 c 0,0 -5.129,-2.336 -9.075,-4.133 -3.875,1.77 -8.984,4.094 -8.984,4.094 -97.996,44.379 -173.035,109.383 -223.008,193.203 -18.594,31.234 -31.195,61.016 -39.816,87.785 -3.598,-0.344 -7.082,-0.695 -10.5,-1.043 8.847,-27.992 21.949,-59.254 41.449,-92.016 51.086,-85.671 127.656,-152.054 227.609,-197.324 0,0 7.813,-3.554 13.25,-6.035 5.489,2.508 13.254,6.035 13.262,6.035 99.922,45.258 176.504,111.649 227.629,197.309 19.487,32.758 32.577,64.027 41.417,92.031 -3.42,0.352 -6.91,0.699 -10.5,1.051 -8.61,-26.785 -21.21,-56.563 -39.784,-87.793 z m -322.598,516.956 0,10.28 c -103.223,-4.9 -190.824,-16.56 -226.047,-21.75 6.582,-14.68 16.516,-36.76 16.516,-36.76 l 0,-236.734 c 3.32,0.375 6.816,0.742 10.312,1.113 l 0,237.821 c 0,0 -6.914,15.4 -11.808,26.29 42.554,5.95 120.719,15.45 211.027,19.74 z m 369.292,-23.01 c -48.011,6.22 -114.37,13.27 -188.14,16.78 l 0,-10.34 c 75.59,-3.64 142.567,-10.93 186.81,-16.66 -1.27,-2.86 -4.14,-9.25 -4.14,-9.25 l 0,-239.71 c 3.49,-0.332 6.96,-0.672 10.3,-1.008 l 0,238.508 c 1.11,2.48 8.93,19.9 8.93,19.9 l -13.76,1.78 z M 531.859,669.754 c -17.093,28.715 -28.886,56.074 -37.129,80.844 -3.617,-0.317 -7.078,-0.637 -10.535,-0.961 8.477,-26.02 20.77,-54.887 38.797,-85.16 49.219,-82.688 123.313,-146.868 220.235,-190.743 l 1.554,-0.703 4.668,-2.226 6.492,2.8 0.079,0.032 c 96.953,44.004 171.074,108.211 220.285,190.843 18.019,30.282 30.315,59.145 38.785,85.161 -3.45,0.324 -6.91,0.644 -10.53,0.961 -8.244,-24.77 -20.033,-52.133 -37.122,-80.848 -48.165,-80.883 -120.715,-143.621 -215.676,-186.723 0,0 -1.278,-0.527 -2.11,-0.91 -0.574,0.313 -2.273,1.027 -2.273,1.027 0,0 0,0 0.105,0 -94.968,42.985 -167.48,105.723 -215.625,186.606 z m 308.371,518.736 0,-10.28 c 90.29,-4.29 168.42,-13.79 210.98,-19.75 -4.89,-10.88 -11.8,-26.28 -11.8,-26.28 l 0,-237.821 c 3.5,-0.367 7,-0.738 10.32,-1.109 l 0,236.72 c 0,0 9.9,22.09 16.49,36.76 -35.2,5.19 -122.79,16.85 -225.99,21.76 z m -363.82,-292.467 0,239.707 c 0,0 -2.879,6.39 -4.16,9.25 44.258,5.73 111.211,13.02 186.828,16.66 l 0,10.34 c -73.773,-3.51 -140.133,-10.56 -188.137,-16.78 l -13.789,-1.77 5.696,-12.68 c 0,0 2.148,-4.76 3.242,-7.23 l 0,-238.508 c 3.344,0.336 6.824,0.676 10.32,1.011" /><path
         id="path3401"
         style="fill:#fddc04;fill-opacity:1;fill-rule:nonzero;stroke:none"
         d="m 749.652,896.254 c -170.886,0 -279.375,-10.641 -339.004,-19.18 0,-14.039 0,-22.652 0,-22.652 0,-18.645 2.032,-54.606 14.348,-100.195 61.981,8.285 166.609,17.359 324.656,17.359 158.047,0 262.628,-9.074 324.668,-17.359 12.3,45.589 14.33,81.55 14.33,100.195 0,0 0,8.613 0,22.652 -59.62,8.539 -168.099,19.18 -338.998,19.18" /><path
         id="path3403"
         style="fill:#10427a;fill-opacity:1;fill-rule:nonzero;stroke:none"
         d="m 442.027,778.871 c 7.715,2.914 11.746,4.719 12.286,8 0.644,3.688 1.308,8.863 1.57,15.484 1.367,31.368 0.812,48.165 0.656,50.04 -0.488,6.027 -1.601,6.476 -11.73,8.484 l -0.164,2.004 c 3.23,-0.008 6.062,-0.047 8.738,0.172 4.551,0.367 9.484,1.035 15.215,1.773 9.492,-19.035 20.175,-39.461 32.441,-61.094 8.574,22.25 16.231,44.161 23.242,65.61 4.707,0.113 8.742,0.172 12.09,0.445 3.477,0.281 7.871,0.906 12.676,1.566 l 0.156,-2.011 c -9.812,-3.492 -12.051,-4.211 -11.648,-9.16 0.457,-5.625 2.793,-16.079 6.043,-31.309 3.664,-16.949 5.937,-28.352 8.312,-34.355 1.199,-3.137 5.028,-3.903 12.461,-5.723 l 0.156,-2.012 c -8.359,0.133 -14.152,0.067 -17.363,-0.195 -5.754,-0.465 -12.687,-1.43 -20.644,-2.887 l -0.168,2.008 c 11.015,3.719 12.89,3.879 12.453,9.227 -0.793,9.773 -5.293,30.425 -12.578,62.031 -8.653,-22.797 -16.985,-47.992 -25.129,-75.461 l -1.61,-0.133 c -13.488,26.797 -26.035,50.297 -37.402,70.797 -0.656,-35.082 -0.332,-55.668 0.164,-61.828 0.547,-6.696 1.602,-6.469 12.844,-8.793 l 0.156,-2.008 c -8.633,0.109 -14.152,0.062 -16.691,-0.141 -4.95,-0.398 -10.411,-1.25 -16.368,-2.539 l -0.164,2.008" /><path
         id="path3405"
         style="fill:#10427a;fill-opacity:1;fill-rule:nonzero;stroke:none"
         d="m 574.203,789.086 c 7.551,2.391 11.582,5.012 12.453,6.535 0.867,1.524 0.555,13.074 -0.527,34.801 -1.094,21.859 -1.945,33.516 -2.961,34.941 -1.016,1.563 -5.418,3.496 -13.027,5.133 l -0.145,2.817 c 4.598,-0.575 9.57,-0.465 14.805,-0.2 4.824,0.239 9.922,0.629 15.281,0.895 5.898,0.297 11.809,0.457 17.578,0.746 6.574,0.328 13,0.781 19.395,1.91 l 1.152,-20.383 -1.738,-0.082 c -2.266,7.68 -4.492,11.875 -5.879,12.742 -1.113,0.622 -6.914,1.004 -17.508,0.477 -5.363,-0.27 -11.008,-0.285 -17.18,-0.594 -0.214,-6.465 0.059,-17.207 0.84,-33.031 l 10.871,0.543 c 11.532,0.574 17.969,1.031 19.266,1.902 1.301,0.871 3.254,4.871 5.187,11.953 l 1.875,0.098 c -0.351,-6.336 -0.382,-11.18 -0.207,-14.668 0.168,-3.351 0.704,-8.703 1.477,-16.195 l -1.875,-0.09 c -2.258,7.414 -4.609,11.469 -6.133,12.332 -1.379,0.738 -7.824,0.547 -19.355,-0.031 l -10.86,-0.539 c 0.137,-2.821 0.274,-5.633 0.399,-8.18 0.636,-12.609 1.379,-22.117 2.101,-28.402 6.328,-0.219 11.707,-0.219 16.133,0 11.934,0.593 18.457,1.996 19.227,2.578 1.425,1.14 3.332,5.945 5.175,14.773 l 2.149,0.11 0.41,-21.629 c -20.828,-0.235 -34.922,-0.797 -42.293,-1.172 -8.586,-0.43 -17.285,-1.129 -25.976,-2.102 l -0.11,2.012" /><path
         id="path3407"
         style="fill:#10427a;fill-opacity:1;fill-rule:nonzero;stroke:none"
         d="m 660.531,793.18 c 7.61,2.187 11.719,4.703 12.617,6.203 0.911,1.5 0.911,13.047 0.411,34.801 -0.508,21.879 -1.043,33.554 -2.012,35.007 -0.977,1.594 -5.32,3.637 -12.891,5.481 l -0.047,2.016 c 7.801,-0.629 14.258,-0.883 19.493,-0.762 5.242,0.121 11.543,0.668 19.304,1.656 l 0.051,-2.019 c -7.336,-2.18 -11.719,-4.43 -12.617,-6.063 -0.91,-1.5 -0.91,-13.184 -0.402,-35.07 0.234,-10.473 0.792,-22.817 1.523,-37.035 4.434,-0.036 8.332,-0.079 11.816,0 11.555,0.269 17.981,1.222 19.161,2.054 1.191,0.836 3.769,5.598 6.515,14.66 l 2.149,0.047 -1.114,-21.648 c -20.285,0.199 -34.258,0.144 -41.906,-0.031 -6.719,-0.149 -13.953,-0.59 -22,-1.313 l -0.051,2.016" /><path
         id="path3409"
         style="fill:#10427a;fill-opacity:1;fill-rule:nonzero;stroke:none"
         d="m 738.258,794.641 c 7.664,1.988 11.836,4.39 12.773,5.867 0.946,1.472 1.258,13.019 1.328,34.773 0.079,21.891 -0.148,33.574 -1.086,35.055 -0.937,1.613 -5.222,3.777 -12.734,5.82 l 0,2.012 c 7.793,-0.832 14.238,-1.258 19.473,-1.277 5.234,-0.012 11.554,0.367 19.336,1.144 l 0,-2.012 c -7.391,-1.992 -11.836,-4.125 -12.782,-5.734 -0.937,-1.473 -1.25,-13.152 -1.328,-35.043 -0.07,-21.758 0.157,-33.305 1.094,-34.785 0.926,-1.481 5.086,-3.91 12.734,-5.953 l -0.011,-2.016 c -7.782,0.836 -14.09,1.262 -19.325,1.274 -5.246,0.019 -11.691,-0.36 -19.484,-1.137 l 0.012,2.012" /><path
         id="path3411"
         style="fill:#10427a;fill-opacity:1;fill-rule:nonzero;stroke:none"
         d="m 833.441,874.207 c -17.714,0.555 -28.32,-11.871 -29.07,-35.492 -0.891,-28.055 9.754,-44.11 27.879,-44.68 17.852,-0.566 28.457,11.86 29.199,35.352 0.879,28.051 -9.89,44.246 -28.008,44.82 z m 29.973,-71.891 c -7.531,-8.757 -18.84,-13.511 -31.855,-13.101 -11.946,0.383 -22.012,4.996 -29.27,13.289 -7.656,8.707 -11.59,20.117 -11.18,33.137 0.371,11.675 4.188,21.902 11.161,30.011 7.804,9.024 18.839,13.649 31.992,13.227 11.945,-0.375 21.875,-4.988 29.133,-13.281 7.781,-8.84 11.718,-20.383 11.308,-33.539 -0.363,-11.411 -4.18,-21.5 -11.289,-29.743" /><path
         id="path3413"
         style="fill:#10427a;fill-opacity:1;fill-rule:nonzero;stroke:none"
         d="m 911.852,835.418 8.847,-0.531 c 16.211,-0.985 24.442,3.906 25.145,15.433 0.722,12.063 -7.43,17.399 -24.59,18.434 -1.738,0.105 -4.024,0.105 -6.992,0.019 -0.996,-12.05 -1.797,-23.164 -2.41,-33.355 z m 54.492,-48.891 c 0.261,-0.019 0.535,-0.035 0.801,-0.05 l -0.129,-2.149 c -3.203,0.465 -6.278,0.785 -9.356,0.973 -3.086,0.183 -6.043,0.23 -9.004,0.137 -8.32,15.976 -16.843,30.75 -25.164,44.433 -0.937,0.192 -2.539,0.289 -4.551,0.41 -1.886,0.114 -4.425,0.27 -7.382,0.313 -0.188,-3.086 -0.364,-5.899 -0.508,-8.449 -0.832,-13.672 -0.918,-21.868 -0.801,-24.301 0.156,-4.18 3.836,-5.61 12.793,-8.84 l -0.129,-2.016 c -7.723,1.278 -14.129,2.067 -19.492,2.391 -4.024,0.242 -10.477,0.226 -19.246,-0.051 l 0.125,2.012 c 7.765,1.547 12.062,3.711 13.086,5.129 1.027,1.418 1.992,12.929 3.301,34.648 1.32,21.844 1.757,33.524 0.91,35.059 -0.84,1.664 -5,4.066 -12.395,6.527 l 0.129,2.012 c 4.793,-0.824 8.66,-1.328 11.473,-1.5 11.261,-0.68 20.703,-0.309 28.34,-0.766 20.507,-1.238 30.41,-8.832 29.64,-21.699 -0.597,-9.922 -8.144,-16.73 -22.597,-20.031 15.39,-27.965 21.445,-43.668 30.156,-44.192" /><path
         id="path3415"
         style="fill:#10427a;fill-opacity:1;fill-rule:nonzero;stroke:none"
         d="m 1025.89,813.645 c -3.06,11.32 -6.57,23.882 -10.81,37.32 -5.72,-10.156 -11.84,-21.758 -18.482,-34.801 l 29.292,-2.519 z m -60.281,-27.172 c 6.047,1.371 9.524,2.554 11.243,5.371 2.82,4.609 17.156,30.336 41.858,77.816 l 2.41,-0.211 c 14.19,-48.254 22.86,-75.957 25.74,-83.211 1.45,-3.629 5.06,-5.422 11.6,-7.734 l -0.17,-2.008 c -8.63,1.551 -15.01,2.5 -19.03,2.848 -5.49,0.472 -11.95,0.488 -19.64,0.472 l 0.18,2.008 c 8.72,1.137 13.16,2.641 13.31,4.387 0.18,2.004 -1.49,9.289 -5.66,21.91 l -33.325,2.863 c -5.996,-11.754 -9.148,-18.761 -9.363,-21.168 -0.176,-2.136 3.445,-3.796 10.976,-5.66 l -0.195,-2.273 c -5.957,1.316 -11.133,2.168 -15.148,2.515 -3.211,0.274 -8.067,0.286 -14.961,0.067 l 0.175,2.008" /><path
         id="path3417"
         style="fill:#10427a;fill-opacity:1;fill-rule:nonzero;stroke:none"
         d="m 673.121,973.543 c -5.211,-0.801 -11.965,-1.383 -18.879,-0.625 -14.453,1.578 -12.422,5.258 -23.633,5.395 -3.183,0.039 -5.546,-0.489 -7.48,-1.098 l 0,95.545 c 0,0 1.828,0.98 4.758,1.37 0.761,0.1 1.609,0.17 2.605,0.16 3.77,-0.04 4.805,-0.48 7.071,-1.43 2.98,-1.25 7.082,-2.97 15.644,-3.91 7.219,-0.79 14.25,-0.31 19.914,0.47 l 0,-95.877 z m -59.512,3.676 c -1.933,0.605 -4.293,1.133 -7.472,1.094 -11.219,-0.137 -9.188,-3.817 -23.641,-5.395 -6.91,-0.758 -13.668,-0.176 -18.879,0.625 l 0,95.877 c 5.664,-0.78 12.696,-1.26 19.914,-0.47 8.574,0.94 12.657,2.66 15.645,3.91 2.265,0.95 3.301,1.39 7.07,1.43 0.996,0.01 1.844,-0.06 2.598,-0.16 2.957,-0.39 4.765,-1.37 4.765,-1.37 l 0,-95.541 z m 93.172,53.361 c 2.141,-0.12 3.86,1.6 3.86,3.94 l 0,7.63 c 0,2.22 -1.719,4.19 -3.86,4.3 l -7.273,0.39 0,22.15 c 0,2.22 -1.731,4.19 -3.86,4.31 l -9.757,0.53 c 1.304,-2.58 2.875,-5.3 4.496,-7.19 l 0.281,-106.124 c -3.965,4.636 -8.027,15.035 -8.027,15.035 l 0,105.499 c 0,0 -13.946,-4.21 -28.399,-2.64 -14.453,1.59 -12.422,5.27 -23.633,5.4 -8.222,0.1 -12.234,-3.29 -12.234,-3.29 0,0 -4.023,3.39 -12.238,3.29 -11.219,-0.13 -9.188,-3.81 -23.641,-5.4 -14.433,-1.57 -28.391,2.64 -28.391,2.64 l 0,-105.499 c 0,0 -4.07,-10.399 -8.035,-15.035 l 0.301,106.124 c 1.613,1.88 3.176,4.61 4.484,7.18 l -9.66,-0.52 c -2.129,-0.12 -3.855,-2.09 -3.855,-4.31 l 0,-22.14 -7.383,-0.4 c -2.129,-0.11 -3.867,-2.08 -3.867,-4.3 l 0,-7.63 c 0,-2.34 1.738,-4.06 3.867,-3.94 l 7.383,0.39 0,-43.095 -7.383,-0.402 c -2.129,-0.114 -3.867,-2.075 -3.867,-4.301 l 0,-7.637 c 0,-2.336 1.738,-4.047 3.867,-3.937 l 7.383,0.398 0,-20.566 c 0,-2.336 1.726,-4.047 3.855,-3.938 l 63.59,3.41 c 2.949,-0.699 7.93,-1.164 13.59,-1.164 5.664,0 10.656,0.465 13.602,1.172 l 63.671,-3.418 c 2.129,-0.109 3.86,1.602 3.86,3.938 l 0,20.558 7.273,-0.39 c 2.141,-0.11 3.86,1.601 3.86,3.937 l 0,7.637 c 0,2.226 -1.719,4.187 -3.86,4.301 l -7.273,0.394 0,43.103 7.273,-0.39" /><path
         id="path3419"
         style="fill:#10427a;fill-opacity:1;fill-rule:nonzero;stroke:none"
         d="m 56.7266,263.621 c -0.8477,-0.414 -2.1289,-0.414 -2.5586,-7.168 -0.4219,-8.433 -0.4219,-97.851 -0.4219,-104.613 0,-6.32 1.7031,-7.59 2.9805,-7.59 2.5586,-0.41 8.1093,-0.41 11.5156,-0.41 12.3672,0 38.8208,3.359 47.3438,8.851 11.941,8.43 25.59,25.731 25.59,48.508 0,22.36 -6.824,38.379 -17.914,48.512 -11.516,10.535 -26.8714,16.863 -52.4612,16.863 -5.5469,0 -11.9375,-1.679 -14.0742,-2.953 z m 84.8714,-5.48 c 18.343,-13.078 26.449,-32.059 26.449,-50.621 0,-28.25 -14.5,-40.481 -24.309,-48.079 -7.246,-6.332 -19.199,-11.39 -26.019,-13.921 -1.703,-0.829 -0.856,-3.801 0.855,-8.02 8.531,-16.441 36.262,-59.4687 48.196,-75.5 13.214,-17.7187 22.179,-28.2617 31.128,-37.1211 13.661,-13.5078 26.028,-17.28906 33.704,-17.28906 3.414,0 5.543,-1.25 5.543,-2.51953 0,-0.85156 -1.7,-2.10937 -5.118,-3.3789 C 228.617,0.429688 221.785,0 215.82,0 189.805,0 172.738,13.9219 156.957,33.3203 135.211,60.7383 99.3789,118.941 93.4102,126.121 c -4.2657,4.629 -8.1016,8.438 -13.2188,9.688 -4.2695,1.269 -10.2383,2.121 -21.3281,1.691 -2.1367,0 -3.8438,-1.691 -4.2656,-3.371 -0.8516,-4.219 -1.2735,-58.1993 -0.8516,-75.0782 0.4219,-19.4024 2.1328,-34.5899 3.4062,-38.3789 1.711,-5.0625 4.6915,-9.3008 20.0547,-11.81252 4.6914,-0.83985 6.3907,-1.67969 6.3907,-3.3711 0,-1.67969 -3.4063,-2.95703 -8.5274,-2.95703 -8.957,0 -17.0664,2.11719 -31.5586,2.11719 C 27.7305,4.64844 15.3516,2.53125 7.24609,2.53125 2.98438,2.53125 0,3.37891 0,5.48828 0,7.17969 2.98438,8.01953 8.53516,9.28125 21.7539,11.8008 26.4492,15.6094 27.7305,33.3203 c 1.2734,24.0391 2.1211,55.668 2.1211,116.8397 0,59.051 -1.7032,81.399 -2.5469,94.903 -0.8555,12.234 -1.7149,18.144 -19.62892,21.085 -3.82812,0.848 -7.246092,1.696 -7.246092,3.805 0,1.262 2.132812,2.524 7.675782,2.524 5.97653,0 16.20703,-1.684 31.56253,-1.684 15.7812,0 31.5586,2.109 45.6406,2.109 25.5894,0 42.2184,-4.636 56.2894,-14.761" /><path
         id="path3421"
         style="fill:#10427a;fill-opacity:1;fill-rule:nonzero;stroke:none"
         d="m 318.617,35.8984 c 13.688,10.6133 29.961,34.75 29.961,70.9806 0,26.332 -7.758,50.121 -24.777,66.941 -10.356,10.621 -26.637,20.86 -49.949,20.86 -15.532,0 -32.918,-9.149 -43.649,-20.481 -15.539,-16.121 -20.348,-39.519 -20.348,-63.301 0,-20.1167 8.508,-43.898 21.086,-58.1792 17.758,-20.8399 35.883,-27.0704 54.75,-27.0704 12.215,0 23.301,3.3008 32.926,10.25 z M 185.805,112 c 0,25.238 10.363,50.121 38.109,70.238 15.91,12.071 34.774,17.922 55.125,17.922 52.895,0 92.852,-40.961 92.852,-91.461 0,-43.1677 -30.707,-71.699 -53.274,-80.8474 -12.207,-5.1211 -24.789,-8.4102 -38.472,-8.4102 -53.274,0 -94.34,43.168 -94.34,92.5586" /><path
         id="path3423"
         style="fill:#10427a;fill-opacity:1;fill-rule:nonzero;stroke:none"
         d="m 540.934,189.922 c 1.476,-0.363 3.699,-2.922 3.699,-4.75 -0.742,-6.582 0.363,-20.492 0.363,-23.051 0.371,-4.391 -1.105,-7.312 -2.215,-7.312 -1.476,0 -1.847,1.82 -2.593,4.39 -2.586,9.871 -6.293,17.192 -15.54,23.77 -9.25,6.59 -21.078,12.07 -43.285,12.07 -21.082,0 -40.324,-9.129 -52.152,-21.219 -12.207,-12.441 -21.828,-35.84 -21.828,-62.55 0,-25.6216 12.207,-49.7505 24.781,-62.5708 14.793,-14.9883 36.254,-22.3203 53.641,-22.3203 17.023,0 25.898,2.5703 34.031,7.6914 10.734,6.9414 18.875,16.461 23.312,27.4492 1.485,3.6524 2.219,5.1211 3.7,5.1211 1.105,0 1.476,-2.9218 1.476,-5.4922 0,-5.5 -3.691,-15.7382 -4.433,-18.2968 -0.743,-2.5625 -2.227,-7.3203 -4.45,-8.7813 -17.746,-9.5117 -31.445,-14.6289 -57.332,-14.6289 -36.257,0 -55.488,10.6094 -73.988,27.0703 -12.949,11.3399 -25.16,36.5781 -25.16,62.5583 0,30.731 14.434,53.051 33.301,68.789 15.902,13.172 40.32,22.301 66.582,22.301 25.535,0 44.773,-5.851 58.09,-10.238" /><path
         id="path3425"
         style="fill:#10427a;fill-opacity:1;fill-rule:nonzero;stroke:none"
         d="m 577.715,170.539 c 0,11.699 -1.84,17.551 -14.055,19.75 -3.695,0.742 -6.648,1.832 -6.648,3.301 0,1.449 3.679,2.18 6.285,2.18 4.812,0 14.418,-1.09 23.68,-1.09 7.386,0 21.828,1.09 25.519,1.09 3.324,0 5.922,-0.36 5.922,-1.821 0,-1.828 -3.695,-3.301 -5.922,-3.66 -9.625,-1.828 -12.578,-5.488 -12.953,-14.269 0,-5.848 -0.734,-51.211 -0.367,-54.508 0.367,-2.563 0.742,-5.121 2.594,-5.121 7.39,0 49.57,0 77.312,0 25.164,0 27.75,0 29.606,0.379 2.207,0.351 2.582,1.449 2.957,3.281 0.738,4.019 0.367,39.148 0,48.648 -0.75,15.742 -3.332,19.762 -13.7,21.223 -3.32,0.726 -7.023,1.84 -7.023,3.289 0,1.828 2.957,2.559 7.023,2.559 12.582,0 13.7,-1.09 25.535,-1.09 9.25,0 15.536,1.09 22.571,1.09 5.172,0 7.39,-0.731 7.39,-2.18 0,-1.11 -2.218,-2.559 -5.921,-2.942 -12.942,-1.82 -14.79,-7.679 -14.79,-18.648 0,-6.949 -0.375,-48.301 0,-66.961 0.368,-18.289 0.743,-45.3593 0.743,-53.7773 0,-15.3633 1.472,-18.6523 16.273,-21.9609 3.695,-0.711 5.922,-1.4492 5.922,-3.2695 0,-1.4727 -2.586,-2.1915 -6.293,-2.1915 -4.809,0 -21.082,1.0821 -27.008,1.0821 -7.762,0 -19.601,-1.0821 -23.301,-1.0821 -5.187,0 -7.402,0.7188 -7.402,2.1915 0,1.8203 2.961,2.5585 5.539,3.2695 11.11,1.8476 13.324,3.3086 14.442,14.6406 0.367,4.7578 0.367,27.0781 0.367,56.7066 0,3.301 -2.227,6.231 -2.957,6.231 -5.176,0.73 -22.2,1.101 -60.305,1.101 -19.23,0 -43.652,0 -47.727,0 -1.48,0 -2.585,-1.832 -2.585,-5.492 0,-57.4372 0.738,-60.7263 1.48,-63.6482 1.105,-5.5 4.437,-6.9609 12.949,-9.1484 4.071,-1.1016 6.293,-2.2031 6.293,-3.6601 0,-2.1915 -4.808,-2.1915 -6.664,-2.1915 -5.547,0 -17.391,1.0821 -26.266,1.0821 -7.773,0 -18.121,-1.0821 -22.57,-1.0821 -2.969,0 -7.39,0.3516 -7.39,2.5391 0,1.1094 3.695,2.5703 6.652,2.9219 12.582,2.5781 12.953,5.8594 13.687,13.5508 0.739,7.6797 1.106,25.6093 1.106,68.0464 l 0,59.641" /><path
         id="path3427"
         style="fill:#10427a;fill-opacity:1;fill-rule:nonzero;stroke:none"
         d="m 768.148,193.211 c 0,1.469 2.227,2.559 4.454,2.559 7.378,0 17.363,-1.09 24.394,-1.09 15.91,0 50.313,0.73 62.152,0.73 10.723,0 19.985,0.36 22.582,0.36 1.469,0 2.583,-2.559 2.958,-4.379 0.351,-2.93 1.472,-15.731 2.207,-20.852 0.375,-2.918 -0.372,-5.117 -1.856,-5.117 -1.101,0 -2.211,1.816 -3.309,4.387 -5.562,12.429 -10.375,16.82 -14.812,17.55 -4.793,0.731 -5.918,1.102 -54.738,1.102 -1.86,0 -2.969,-0.731 -2.969,-4.02 0,-15 -0.371,-56.703 0,-64.75 0,-1.472 0.738,-2.921 2.227,-2.921 l 31.8,0 c 14.809,0 21.098,1.449 24.051,2.921 1.848,1.079 4.066,3.278 7.031,10.61 0.743,2.187 1.848,4.379 3.332,4.379 1.102,0 1.481,-1.469 1.481,-5.121 0,-1.469 -1.481,-12.438 -1.86,-16.457 -0.355,-4.403 -0.355,-14.2622 0,-16.4614 0.379,-2.5703 -0.355,-5.5 -1.46,-5.5 -1.493,0 -2.227,1.8399 -4.079,6.2305 -1.863,4.3909 -3.703,10.2379 -8.136,10.9809 -4.45,1.078 -12.953,1.808 -52.91,1.808 -0.739,0 -2.215,-1.09 -2.215,-3.66 -0.371,-8.7695 0.738,-53.3984 1.113,-58.8906 0.734,-10.25 1.102,-15 7.394,-15.7305 3.704,-0.3672 14.43,-1.0976 29.961,-1.0976 27,0 29.606,1.457 34.039,4.75 2.958,2.5585 7.028,7.6796 12.579,17.1875 1.48,2.9296 2.964,4.7617 4.07,4.7617 1.488,0 1.848,-2.5586 0,-7.6797 -1.106,-2.9297 -5.559,-18.2891 -6.297,-21.9492 -0.359,-1.8203 -2.953,-4.0118 -5.172,-4.0118 -31.437,0 -61.043,1.0821 -87.68,1.0821 -9.617,0 -22.195,-1.0821 -25.511,-1.0821 -3.352,0 -7.418,0 -7.418,2.1915 0,1.457 2.972,2.5585 5.929,2.9179 9.997,1.8321 14.426,4.7617 15.161,15.7422 1.113,17.5274 1.113,49.7383 1.113,77.1996 0,13.89 0,29.257 0,48.648 0,14.633 -4.438,17.551 -14.426,19.75 -3.324,0.742 -4.805,1.832 -4.805,3.301 l -0.375,-0.379" /><path
         id="path3429"
         style="fill:#10427a;fill-opacity:1;fill-rule:nonzero;stroke:none"
         d="m 938.559,162.852 c 0,-14.274 9.254,-24.512 18.511,-31.09 10.719,-6.953 20.348,-13.184 31.075,-19.391 11.089,-7.332 29.225,-20.1327 29.225,-42.8007 0,-31.1211 -28.854,-50.1289 -58.452,-50.1289 -13.328,0 -29.594,3.2891 -39.227,8.0469 -3.691,1.1015 -4.433,5.8515 -5.535,10.2422 -0.371,4.7578 -1.484,10.6093 -2.226,19.75 -0.371,3.3086 0,6.2383 1.488,6.2383 1.469,0 3.32,-2.5704 4.805,-6.9571 2.953,-9.8906 7.39,-17.5625 14.058,-22.6914 8.871,-6.9414 20.711,-9.1484 27.742,-9.1484 22.93,0 36.254,14.6367 36.254,33.6484 0,19.7695 -11.101,29.6406 -35.882,44.2817 -21.082,12.429 -40.329,27.449 -40.329,51.578 0,13.191 6.305,26.711 17.762,34.769 10.356,7.692 24.793,10.961 37.363,10.961 14.426,0 26.639,-4.39 30.339,-5.851 2.22,-0.719 3.33,-2.188 3.7,-3.661 0,-7.679 1.48,-16.449 2.23,-20.476 0.73,-4.043 0.35,-6.594 -1.13,-6.594 -1.47,0 -2.58,1.844 -3.69,5.492 -2.96,8.051 -6.667,13.899 -12.202,17.93 -6.665,5.48 -15.551,8.039 -24.055,8.039 -13.684,0 -31.824,-7.68 -31.824,-32.187" /><path
         id="path3431"
         style="fill:#10427a;fill-opacity:1;fill-rule:nonzero;stroke:none"
         d="m 1156.52,194.68 c 13.33,0 18.5,0.73 23.31,2.558 1.84,1.09 3.7,2.203 4.43,1.473 0.75,-0.742 0.75,-1.82 0.38,-3.301 -1.11,-2.199 -2.21,-14.269 -1.85,-26.711 0,-4.019 -0.74,-6.949 -2.21,-6.949 -1.12,0 -2.23,2.57 -2.6,4.379 -0.73,3.68 -3.71,13.922 -5.55,16.48 -2.21,2.922 -2.97,4.391 -12.2,4.391 -6.29,0 -37.37,0 -43.29,0 -1.48,0 -2.22,-3.289 -2.22,-4.762 l -0.74,-96.2185 c 0,-16.0976 0,-35.4882 1.11,-43.8984 1.12,-8.0508 5.18,-10.9727 14.8,-12.8203 4.07,-0.711 6.29,-2.1719 6.29,-3.6524 0,-1.457 -4.44,-2.1992 -7.03,-2.1992 -8.88,0 -15.17,1.4727 -26.27,1.4727 -15.17,0 -21.82,-1.4727 -26.26,-1.4727 -5.19,0 -7.03,1.1094 -7.03,2.1992 0,1.4805 2.58,2.5625 6.29,3.3008 13.68,1.8321 15.53,5.1211 15.9,19.0313 1.13,27.4414 1.85,131.3395 1.85,134.2575 0,1.473 -0.37,4.391 -1.85,4.762 -2.58,0 -10.36,0 -23.3,0 -12.21,0 -21.09,-0.371 -24.78,-0.73 -5.57,-0.739 -9.99,-4.391 -12.95,-19.032 -0.75,-3.289 -1.85,-5.117 -2.96,-5.117 -1.48,0 -2.22,2.199 -2.22,5.5 0,5.848 2.95,18.289 2.95,27.789 0,1.828 0.38,3.301 1.11,4.031 1.12,0.719 1.86,0 3.33,-1.472 1.12,-1.078 5.17,-1.821 9.25,-2.199 4.07,-0.36 34.04,-1.09 64.38,-1.09 l 49.93,0" /><path
         id="path3433"
         style="fill:#10427a;fill-opacity:1;fill-rule:nonzero;stroke:none"
         d="m 1196.49,193.211 c 0,1.469 2.22,2.559 4.44,2.559 7.4,0 17.39,-1.09 24.42,-1.09 15.9,0 50.31,0.73 62.15,0.73 10.73,0 19.97,0.36 22.56,0.36 1.48,0 2.59,-2.559 2.97,-4.379 0.37,-2.93 1.48,-15.731 2.22,-20.852 0.36,-2.918 -0.37,-5.117 -1.85,-5.117 -1.12,0 -2.23,1.816 -3.34,4.387 -5.54,12.429 -10.36,16.82 -14.79,17.55 -4.81,0.731 -5.92,1.102 -54.76,1.102 -1.85,0 -2.95,-0.731 -2.95,-4.02 0,-15 -0.37,-56.703 0,-64.75 0,-1.472 0.74,-2.921 2.21,-2.921 l 31.81,0 c 14.81,0 21.09,1.449 24.06,2.921 1.84,1.079 4.06,3.278 7.03,10.61 0.73,2.187 1.85,4.379 3.32,4.379 1.12,0 1.48,-1.469 1.48,-5.121 0,-1.469 -1.48,-12.438 -1.85,-16.457 -0.37,-4.403 -0.37,-14.2622 0,-16.4614 0.37,-2.5703 -0.37,-5.5 -1.47,-5.5 -1.48,0 -2.21,1.8399 -4.08,6.2305 -1.84,4.3909 -3.69,10.2379 -8.13,10.9809 -4.44,1.078 -12.96,1.808 -52.9,1.808 -0.74,0 -2.22,-1.09 -2.22,-3.66 -0.37,-8.7695 0.74,-53.3984 1.1,-58.8906 0.74,-10.25 1.12,-15 7.41,-15.7305 3.7,-0.3672 14.41,-1.0976 29.96,-1.0976 27.01,0 29.59,1.457 34.04,4.75 2.95,2.5585 7.01,7.6796 12.57,17.1875 1.47,2.9296 2.96,4.7617 4.07,4.7617 1.48,0 1.85,-2.5586 0,-7.6797 -1.11,-2.9297 -5.54,-18.2891 -6.29,-21.9492 -0.36,-1.8203 -2.96,-4.0118 -5.17,-4.0118 -31.44,0 -61.05,1.0821 -87.69,1.0821 -9.61,0 -22.2,-1.0821 -25.51,-1.0821 -3.33,0 -7.4,0 -7.4,2.1915 0,1.457 2.95,2.5585 5.91,2.9179 9.98,1.8321 14.44,4.7617 15.18,15.7422 1.1,17.5274 1.1,49.7383 1.1,77.1996 0,13.89 0,29.257 0,48.648 0,14.633 -4.44,17.551 -14.43,19.75 -3.33,0.742 -4.81,1.832 -4.81,3.301 l -0.37,-0.379" /><path
         id="path3435"
         style="fill:#10427a;fill-opacity:1;fill-rule:nonzero;stroke:none"
         d="m 1377.99,188.09 c -0.74,-0.36 -1.85,-2.18 -2.22,-7.309 -0.36,-4.39 -1.1,-58.543 -1.1,-62.929 0,-1.461 0.74,-5.481 2.58,-5.481 4.45,-0.371 10.37,-0.371 16.28,-0.371 11.1,0.371 19.97,3.281 26.27,6.949 8.15,5.121 16.27,15 16.27,30 0,10.981 -3.69,20.121 -9.98,27.442 -7.76,8.41 -19.24,13.898 -33.66,13.898 -2.97,0 -11.47,-0.73 -14.44,-2.199 z m -3.32,-120.7189 c 0,-19.3906 1.1,-25.6094 1.47,-27.8125 0.37,-5.8477 4.82,-8.7773 12.95,-10.2578 2.59,-0.3516 5.92,-1.4492 5.92,-2.9219 0,-1.457 -3.33,-2.5391 -6.66,-2.5391 -6.29,0 -17.38,1.0821 -27.74,1.0821 -10.37,0 -15.91,-1.0821 -21.45,-1.0821 -4.44,0 -6.3,1.0821 -6.3,2.1915 0,1.457 2.23,2.5585 6.3,3.2695 10.35,1.8476 13.32,4.7695 14.05,14.6406 1.11,15.3594 1.11,34.3984 1.11,73.5276 0,37.34 0,51.972 -0.37,59.281 -0.36,8.051 -2.95,12.078 -14.43,13.898 -2.96,0.383 -5.55,1.832 -5.55,2.942 0,1.449 3.33,2.18 5.55,2.18 4.07,0 11.09,-1.09 21.09,-1.09 12.94,0 25.53,1.468 38.47,1.468 19.25,0 30.7,-3.668 40.33,-10.238 12.21,-7.691 17.75,-19.781 17.75,-31.48 0,-21.942 -15.16,-35.121 -33.66,-40.969 -2.22,-0.731 -2.22,-1.82 -0.74,-4.762 6.66,-12.0584 21.08,-32.5584 32.56,-47.5506 8.87,-11.707 15.16,-17.5703 20.71,-23.0586 7.76,-7.3085 16.65,-10.2382 22.93,-10.2382 3.34,0 2.6,-2.2032 0,-3.6602 -2.58,-1.4609 -7.02,-2.2031 -14.05,-2.2031 -19.25,0 -28.47,8.4219 -40.69,21.2226 -14.44,15.3594 -35.16,47.9297 -41.44,56.3477 -2.96,3.2934 -8.5,5.4804 -12.21,6.2114 -2.58,0.378 -8.87,0.73 -13.32,0.73 -1.48,0 -2.58,-2.551 -2.58,-5.121 l 0,-34.0079" /><path
         id="path3437"
         style="fill:#10427a;fill-opacity:1;fill-rule:nonzero;stroke:none"
         d="m 1177.96,276.805 c -4.98,-8.098 -6.75,-16.914 -6.75,-22.211 0,-3.942 1.67,-6.746 5.5,-6.746 1.87,0 3.85,1.14 6.85,5.402 3.53,4.879 7.69,16.914 7.69,23.035 0,3.43 -1.04,7.063 -5.09,7.063 -1.87,0 -4.88,-1.145 -8.2,-6.543 z m 20.97,-3.844 c 0,-9.754 -4.67,-21.063 -12.36,-26.356 -3.11,-2.078 -6.84,-3.742 -10.47,-3.742 -8.41,0 -13.09,8.828 -12.98,16.196 0.11,9.757 5.61,20.031 12.04,24.91 3.21,2.386 8.82,4.047 11.1,4.047 8.2,0 12.67,-7.578 12.67,-15.055" /><path
         id="path3439"
         style="fill:#10427a;fill-opacity:1;fill-rule:nonzero;stroke:none"
         d="m 1238.16,286.879 c 1.98,0.098 2.4,-0.524 2.4,-1.149 0,-0.929 -1.04,-3.117 -2.4,-3.429 -1.03,-0.203 -5.91,-0.41 -7.99,-0.512 -0.62,0 -2.38,-0.523 -2.69,-1.66 -4.88,-23.039 -8.1,-35.184 -10.17,-42.871 -2.18,-7.875 -4.99,-11.309 -11.01,-15.039 -4.77,-2.91 -8.3,-3.942 -10.79,-3.942 -2.49,0 -7.16,1.969 -7.16,5.395 0,1.969 1.04,4.359 2.07,4.976 0.53,0.211 3.01,0.832 3.54,0.321 2.48,-2.399 5.49,-4.465 7.47,-4.465 2.49,0 4.57,0.723 6.74,9.023 3.01,11.418 9.86,42.661 10.69,46.809 0,0.418 -0.21,1.238 -0.73,1.238 l -6.74,-0.199 c -0.42,0 -1.15,0.828 -1.15,1.348 0,1.558 1.77,3.316 2.19,3.316 0.83,0.106 4.98,0.316 6.74,0.414 0.73,0 1.25,1.039 1.46,1.246 2.8,9.344 7.98,19.52 15.15,24.086 3.74,2.383 7.37,3.211 9.23,3.211 6.86,0 9.76,-3.73 9.76,-7.473 0,-1.043 -0.41,-3.312 -2.18,-4.668 -0.83,-0.625 -2.18,-1.035 -2.91,-1.035 -0.51,0 -1.86,0.618 -1.97,1.45 -0.51,4.355 -2.17,7.054 -6.12,7.054 -1.15,0 -3.43,-1.039 -5.5,-3.949 -1.97,-2.902 -4.88,-10.266 -6.75,-18.98 -0.1,-0.418 0.63,-0.942 0.73,-0.942 l 8.09,0.426" /><path
         id="path3441"
         style="fill:#10427a;fill-opacity:1;fill-rule:nonzero;stroke:none"
         d="m 277.25,308.656 c 5.121,0 7.926,-0.832 14.691,-0.832 5.446,0 8.258,0.332 12.547,0.332 3.465,0 4.785,-0.984 4.785,-1.812 0,-1.156 -0.66,-2.141 -4.46,-2.977 -4.778,-0.984 -7.426,-1.976 -7.426,-8.254 -0.16,-9.406 0,-20.957 0.168,-31.523 0.164,-10.727 4.957,-17.824 7.59,-19.969 3.14,-2.316 8.918,-4.781 14.523,-4.781 10.566,0 19.473,2.805 21.289,22.613 0.828,11.875 0.664,30.86 0.664,32.844 -0.492,5.277 -1.324,8.25 -9.078,9.574 -1.816,0.332 -3.465,1.317 -3.465,2.473 0,1.48 2.149,1.812 4.285,1.812 4.133,0 3.641,-0.332 7.766,-0.332 6.598,0 12.379,0.832 16.004,0.832 2.476,0 3.801,-1.16 3.801,-1.656 0,-1.641 -1.653,-2.309 -3.801,-2.797 -6.102,-1.488 -7.914,-3.476 -8.086,-10.246 -0.164,-4.617 -0.824,-13.531 -1.156,-23.434 -0.328,-13.695 -3.129,-26.406 -11.879,-33.339 -4.785,-3.957 -11.227,-6.438 -19.973,-6.438 -9.074,0 -16.504,2.805 -21.121,6.777 -6.934,5.766 -10.566,14.028 -10.566,34.161 0,4.457 -0.168,23.265 -0.497,26.238 -0.164,1.652 -0.664,4.625 -7.257,6.109 -1.989,0.492 -3.801,1.813 -3.801,2.637 0,1.488 1.812,1.988 4.453,1.988" /><path
         id="path3443"
         style="fill:#10427a;fill-opacity:1;fill-rule:nonzero;stroke:none"
         d="m 376.43,308.488 c 3.789,0 14.847,-0.992 18.648,-0.992 1.317,0 2.145,-0.664 3.301,-2.137 3.137,-3.968 6.766,-7.597 11.055,-12.55 4.457,-5.121 25.914,-28.387 34.332,-37.297 0.164,-0.172 1.156,-0.336 1.156,0.652 0.168,9.082 0.992,30.699 0.168,38.629 -0.5,4.781 -2.317,7.422 -10.231,9.238 -1.328,0.492 -3.468,1.157 -3.468,2.637 0,1.82 3.468,1.82 3.957,1.82 5.613,0 9.906,-0.664 14.027,-0.664 3.305,0 7.426,0.664 11.555,0.664 1.648,0 3.465,-0.664 3.465,-1.82 0,-1.152 -0.825,-1.645 -3.465,-2.637 -6.438,-1.816 -7.754,-3.961 -8.414,-10.394 -0.661,-6.278 -1.493,-27.399 -1.493,-36.973 0,-9.242 0.497,-20.133 0.497,-21.289 0,-2.645 -0.661,-4.461 -2.145,-4.461 -1.156,0 -3.629,1.32 -4.945,2.477 -2.809,3.304 -9.25,12.043 -18.321,21.785 -7.593,8.254 -19.152,22.449 -28.886,32.683 -0.328,0.493 -1.485,0.493 -1.485,-0.664 -0.168,-5.609 -0.992,-29.547 -0.168,-40.429 0.493,-5.289 4.293,-7.598 9.243,-9.243 1.82,-0.664 2.968,-1.324 2.968,-2.476 0,-1.656 -2.308,-2.149 -3.789,-2.149 -0.5,0 -5.613,0.493 -10.238,0.493 -4.125,0 -11.055,-0.993 -14.688,-0.993 -2.14,0 -3.961,0.5 -3.961,2.145 0,0.832 0.661,1.484 3.801,2.316 7.926,1.981 8.907,4.95 9.407,9.071 0.332,4.133 1.316,19.644 1.316,34.175 0,7.754 -0.164,12.208 -0.328,13.532 -0.16,1.312 -2.641,5.441 -5.938,7.918 -1.492,1.16 -3.308,1.976 -6.769,2.648 -2.973,0.488 -4.293,1.313 -4.293,2.629 0,0.664 1.976,1.656 4.129,1.656" /><path
         id="path3445"
         style="fill:#10427a;fill-opacity:1;fill-rule:nonzero;stroke:none"
         d="m 485.836,308.324 c 1.32,-0.168 12.871,-0.5 17.66,-0.5 5.113,0 12.379,0.5 16.008,0.992 1.156,0.164 3.633,-0.992 3.633,-1.816 0,-1.156 -2.153,-2.641 -4.129,-2.969 -7.918,-2.32 -8.582,-3.636 -8.91,-9.57 -0.332,-3.633 -0.332,-12.055 -0.332,-22.777 0,-9.411 0,-17.829 0.172,-21.286 0.328,-9.41 1.48,-10.902 9.234,-12.714 1.98,-0.5 3.801,-1.817 3.801,-3.301 0,-1.156 -1.657,-1.485 -3.305,-1.485 -4.625,0 -9.078,0.493 -16.172,0.493 -4.789,0 -13.535,-0.825 -16.672,-0.825 -2.472,0 -3.965,0.661 -3.965,1.817 0,1.484 2.485,2.637 3.965,3.14 7.926,1.973 9.406,3.782 9.739,10.063 0.16,2.969 0.328,8.09 0.328,13.531 0,17.332 0,28.887 -0.168,31.531 -0.493,7.086 -3.301,9.235 -9.735,11.055 -2.968,0.988 -3.457,2.141 -3.457,3.129 0,0.664 0.489,1.656 2.305,1.492" /><path
         id="path3447"
         style="fill:#10427a;fill-opacity:1;fill-rule:nonzero;stroke:none"
         d="m 544.086,308.656 c 3.133,0 9.73,-0.832 15.016,-0.832 4.953,0 9.742,0.5 13.535,0.5 3.301,0 4.293,-0.988 4.293,-1.98 0,-0.985 -1.16,-1.821 -3.801,-2.641 -6.434,-1.32 -6.109,-4.129 -4.621,-7.926 2.144,-5.277 4.621,-12.05 8.09,-20.461 3.797,-8.418 7.754,-19.476 9.742,-21.617 0.656,-0.668 1.316,-1.488 1.973,0.321 1.984,4.621 12.875,31.359 15.519,38.945 2.473,7.43 2.145,9.25 -4.461,10.906 -1.48,0.488 -3.469,1.645 -3.469,2.641 0,0.488 1.325,1.812 3.965,1.812 4.457,0 6.602,-0.5 10.723,-0.5 5.789,0 10.902,0.832 13.535,0.832 1.816,0 3.641,-0.5 3.641,-1.656 0,-1.641 -1.985,-2.309 -4.297,-2.969 -5.281,-1.316 -8.414,-3.961 -12.539,-11.718 -3.801,-6.774 -8.086,-18.157 -13.371,-29.875 -7.918,-17.493 -10.563,-25.907 -11.387,-27.895 -0.664,-1.977 -2.973,-4.453 -4.297,-4.453 -1.152,0 -2.145,1.812 -2.473,3.301 -0.324,1.32 -2.804,9.738 -6.101,17.328 -3.805,8.742 -15.352,36.304 -20.305,46.051 -1.976,3.625 -4.289,6.097 -10.066,7.433 -1.485,0.488 -3.629,1.313 -3.629,2.465 0,1.656 2.472,1.988 4.785,1.988" /><path
         id="path3449"
         style="fill:#10427a;fill-opacity:1;fill-rule:nonzero;stroke:none"
         d="m 675.938,274.156 c 7.097,0 7.917,0.828 10.23,6.438 0.824,1.488 1.984,3.301 3.133,3.301 1.328,0 1.492,-1.645 1.492,-3.79 0,-1.156 -0.5,-3.308 -0.5,-7.597 0,-4.789 0.5,-5.278 0.5,-8.746 0,-3.637 -0.992,-4.629 -2.316,-4.629 -0.989,0 -1.813,1.328 -2.637,3.305 -1.485,3.3 -2.149,4.792 -3.633,5.449 -1.977,0.656 -11.719,0.984 -14.359,0.656 -0.493,0 -1.317,-1.148 -1.653,-2.305 -0.496,-2.972 -0.652,-19.644 0.336,-23.605 0.164,-0.653 2.141,-2.309 2.805,-2.637 0.992,-0.664 6.109,-1.82 9.902,-1.82 3.797,0 8.418,0.336 10.563,0.992 5.117,1.484 7.094,2.309 11.883,9.734 1.324,2.149 2.308,3.309 3.296,3.309 1.657,0 1.657,-2.813 1.657,-3.633 0,-2.648 -3.309,-12.879 -4.457,-14.523 -0.664,-1.157 -1.653,-1.489 -5.285,-1.489 -15.508,0 -15.348,0.825 -37.954,0.825 -5.285,0 -10.898,-0.825 -14.859,-0.825 -2.144,0 -4.945,0.497 -4.945,2.145 0,1.488 1.976,2.309 3.789,2.812 9.242,2.141 9.574,4.122 10.07,9.899 0.324,4.449 0.488,15.187 0.488,25.906 0,7.598 0,16.012 -0.324,23.106 -0.164,3.464 -1.156,5.781 -8.086,7.437 -1.976,0.488 -3.961,1.317 -3.961,2.797 0,1.156 1.813,1.82 4.453,1.82 2.973,0 8.258,-0.664 14.528,-0.664 31.687,0 32.347,-0.172 36.308,0.664 0.985,0.168 1.977,-0.836 1.977,-1.488 0,-4.785 1.156,-11.719 1.156,-14.035 0,-1.973 -1.156,-2.961 -1.648,-2.961 -0.824,0 -2.149,0.656 -3.469,3.301 -2.969,6.097 -4.949,8.25 -10.063,8.91 -2.312,0.168 -4.125,0.652 -16.343,0.652 -0.657,0 -1.317,-1.476 -1.481,-2.14 -0.496,-2.481 -0.668,-19.141 -0.336,-24.258 0,-0.828 0.664,-1.656 1.985,-1.985 2.64,-0.328 6.273,-0.328 7.758,-0.328" /><path
         id="path3451"
         style="fill:#10427a;fill-opacity:1;fill-rule:nonzero;stroke:none"
         d="m 749.363,303.039 c -0.824,-0.324 -1.648,-1.328 -1.648,-2.644 0,-1.649 -0.492,-24.754 -0.492,-26.239 0,-0.988 0.66,-1.82 1.648,-1.82 7.262,0 15.68,1.324 17.824,2.812 2.481,1.813 6.926,6.098 6.926,12.711 0,6.934 -5.277,16.012 -19.633,16.012 -1.644,0 -3.465,-0.34 -4.625,-0.832 z m -23.269,4.953 c 3.965,0 7.429,0 9.242,0 3.965,0 10.402,0.664 24.098,0.664 10.726,0 17.992,-2.476 21.461,-6.109 4.125,-3.801 5.941,-8.086 5.941,-13.043 0,-11.551 -9.246,-16.676 -14.199,-18.149 -0.328,-0.171 -0.824,-0.832 -0.66,-0.992 3.3,-6.269 9.902,-17 16.671,-24.597 3.793,-4.121 9.079,-8.243 13.696,-9.071 2.476,-0.496 2.969,-0.828 2.969,-2.312 0,-1.985 -3.79,-2.969 -9.899,-2.969 -6.766,0 -12.875,2.305 -19.969,10.231 -2.98,3.3 -12.215,18.152 -14.855,22.117 -1.485,2.316 -6.274,4.453 -10.067,4.453 -0.66,0 -1.484,-0.164 -2.64,-1.156 -0.332,-0.329 -0.66,-0.821 -0.66,-1.321 0,-3.465 0.164,-12.211 0.492,-21.125 0.168,-4.949 2.973,-5.617 7.262,-6.929 1.324,-0.329 3.304,-1.153 3.304,-2.477 0,-1.98 -2.808,-2.309 -4.457,-2.309 -5.285,0 -8.75,0.493 -12.871,0.493 -5.117,0 -10.234,-1.157 -15.351,-1.157 -2.809,0 -4.454,0.829 -4.454,1.981 0,0.992 1.313,2.316 4.122,2.969 7.425,1.812 8.578,3.3 8.914,10.57 0.168,3.297 0.82,17.648 0.82,33.172 0,7.09 0.172,11.219 -0.16,15.179 -0.332,3.469 -0.492,6.11 -8.75,7.426 -2.473,0.5 -4.125,1.492 -4.125,2.649 0,1.156 1.98,1.812 4.125,1.812" /><path
         id="path3453"
         style="fill:#10427a;fill-opacity:1;fill-rule:nonzero;stroke:none"
         d="m 866.859,307.824 c 1.161,-0.172 1.653,-2.144 1.653,-3.953 0,-4.793 0.164,-8.59 -0.16,-10.734 -0.5,-3.133 -1.821,-3.633 -2.313,-3.633 -1.488,0 -2.148,1.988 -2.644,3.965 -1.317,4.777 -3.461,7.422 -5.606,9.246 -2.148,1.808 -5.941,3.297 -9.906,3.297 -8.25,0 -13.867,-5.785 -13.867,-12.875 0,-5.61 4.629,-10.063 10.23,-13.203 5.285,-2.973 9.738,-5.121 14.527,-7.926 6.93,-3.957 12.551,-10.067 12.551,-19.309 0,-7.59 -5.117,-13.859 -9.906,-16.832 -3.469,-2.316 -11.063,-5.121 -18.316,-5.121 -9.911,0 -17.004,2.317 -20.801,5.121 -1.321,0.828 -1.653,2.477 -1.817,3.465 -0.168,1.973 -1.484,9.91 -1.484,12.375 0,3.133 1.156,4.457 2.313,4.457 1.484,0 1.98,-1.812 2.64,-3.629 0.828,-2.137 2.469,-5.613 3.797,-7.762 4.125,-5.441 9.902,-9.398 17.168,-9.398 9.238,0 13.695,6.605 13.695,12.211 0,6.434 -3.472,9.902 -9.574,13.695 -4.953,2.977 -9.406,5.278 -13.039,7.59 -5.937,3.805 -13.527,10.234 -13.527,20.145 0,12.375 10.222,21.449 26.73,21.449 8.426,0 13.031,-1.977 17.656,-2.641" /><path
         id="path3455"
         style="fill:#10427a;fill-opacity:1;fill-rule:nonzero;stroke:none"
         d="m 898.215,308.324 c 1.312,-0.168 12.863,-0.5 17.652,-0.5 5.117,0 12.375,0.5 16.012,0.992 1.156,0.164 3.625,-0.992 3.625,-1.816 0,-1.156 -2.145,-2.641 -4.121,-2.969 -7.922,-2.32 -8.578,-3.636 -8.91,-9.57 -0.332,-3.633 -0.332,-12.055 -0.332,-22.777 0,-9.411 0,-17.829 0.164,-21.286 0.328,-9.41 1.48,-10.902 9.242,-12.714 1.976,-0.5 3.797,-1.817 3.797,-3.301 0,-1.156 -1.653,-1.485 -3.301,-1.485 -4.621,0 -9.078,0.493 -16.176,0.493 -4.789,0 -13.531,-0.825 -16.668,-0.825 -2.476,0 -3.961,0.661 -3.961,1.817 0,1.484 2.477,2.637 3.961,3.14 7.918,1.973 9.406,3.782 9.739,10.063 0.16,2.969 0.332,8.09 0.332,13.531 0,17.332 0,28.887 -0.172,31.531 -0.493,7.086 -3.301,9.235 -9.739,11.055 -2.968,0.988 -3.461,2.141 -3.461,3.129 0,0.664 0.493,1.656 2.317,1.492" /><path
         id="path3457"
         style="fill:#10427a;fill-opacity:1;fill-rule:nonzero;stroke:none"
         d="m 1007.61,307.824 c 18.66,0 20.14,1.156 24.27,3.801 0.66,0.32 2.48,-0.504 2.48,-2.477 -0.34,-7.437 0.49,-14.199 0.49,-16.011 0,-2.309 -1.49,-3.633 -2.31,-3.633 -1.15,0 -2.14,1.156 -2.64,2.98 -2.97,8.575 -5.61,9.071 -9.07,9.227 -3.48,0.172 -12.71,0 -18,-0.484 -0.65,0 -1.16,-1.493 -1.32,-2.313 -0.32,-2.48 -0.32,-20.797 -0.32,-37.633 0,-9.07 0.32,-14.515 1.14,-17.328 1,-3.801 2.48,-4.457 9.25,-6.269 2.97,-0.664 4.13,-1.657 4.13,-2.809 0,-1.156 -2.31,-2.145 -4.46,-2.145 -6.93,0 -8.58,0.661 -16.504,0.661 -4.293,0 -13.203,-0.825 -17.328,-0.825 -2.316,0 -4.125,0.985 -4.125,2.309 0,1.324 2.473,2.145 4.621,2.648 9.238,2.309 9.41,4.286 9.731,10.715 0.5,14.532 0.992,31.696 0.992,50.84 0,0.324 -0.657,1.813 -1.649,1.981 -2.968,0.496 -13.203,1.324 -16.668,0.992 -3.136,-0.34 -5.449,-1.824 -8.25,-6.274 -1.988,-2.968 -2.48,-4.453 -3.8,-4.453 -1.321,0 -1.981,1.981 -1.981,3.297 0.164,3.141 1.981,10.895 1.981,14.859 0,1.977 1.984,2.969 2.476,2.969 1.152,0 2.313,-1.328 2.965,-1.984 1.492,-1.317 4.957,-2.641 22.285,-2.641 l 21.614,0" /><path
         id="path3459"
         style="fill:#10427a;fill-opacity:1;fill-rule:nonzero;stroke:none"
         d="m 1054.64,308.656 c 3.3,0 11.39,-0.832 16.34,-0.832 5.61,0 8.09,0.5 11.55,0.5 1.98,0 3.8,-0.828 3.8,-1.812 0,-1.324 -1.65,-2.481 -3.63,-2.981 -4.79,-1.148 -4.46,-3.461 -3.3,-6.105 1.32,-3.469 8.58,-16.18 13.86,-25.586 0.33,-0.485 1.49,-0.324 1.65,0 0.83,1.488 12.05,20.969 14.53,26.406 1.65,3.309 1.15,4.137 -3.63,5.625 -2.98,0.82 -3.47,1.645 -3.47,2.641 0,0.984 1.48,1.812 3.96,1.812 4.12,0 4.46,-0.5 9.24,-0.5 2.64,0 12.05,0.664 13.04,0.664 1.48,0 3.96,-0.496 3.96,-1.656 0,-1.809 -2.64,-2.801 -3.96,-2.961 -7.76,-1.324 -9.08,-3.476 -14.2,-9.914 -4.45,-5.437 -12.87,-19.801 -16.17,-26.406 -0.66,-1.313 -1.15,-2.305 -1.32,-6.098 -0.17,-3.633 -0.17,-13.215 0.17,-17.008 0.49,-3.961 2.47,-5.449 7.92,-6.761 2.64,-0.664 4.62,-1.153 4.62,-2.637 0,-1.156 -1.32,-2.149 -4.29,-2.149 -6.27,0 -6.11,0.493 -12.38,0.493 -4.62,0 -13.03,-0.825 -18.98,-0.825 -2.8,0 -4.29,0.497 -4.29,2.145 0,0.664 1.16,1.82 3.3,2.309 8.58,1.82 10.39,3.796 10.57,6.601 0.16,3.145 0.49,13.207 0.49,15.84 0,3.969 -0.17,4.129 -1.16,6.777 -2.14,5.446 -12.04,22.442 -15.67,27.231 -4.63,6.926 -6.11,8.914 -12.88,10.734 -2.47,0.652 -3.63,1.641 -3.63,2.797 0,0.652 1.48,1.656 3.96,1.656" /></g></g></svg>